<svg xmlns="http://www.w3.org/2000/svg" viewBox="0 0 71.13 202"><defs><style>.cls-1{fill:#a57f49;}.cls-2{fill:#bd9243;}.cls-3{fill:#c9a958;}.cls-4{fill:#f1db7c;}.cls-5{fill:#e2c573;}</style></defs><title>Asset 5</title><g id="Layer_2" data-name="Layer 2"><g id="Alphabet"><polygon class="cls-1" points="71.13 34.42 47.51 0 0 0 0 18.8 71.13 40.58 71.13 34.42"/><polygon class="cls-2" points="71.13 0 47.51 0 71.13 34.42 71.13 0"/><polygon class="cls-2" points="71.13 47.06 71.13 40.58 0 18.8 0 26.38 15.14 36.7 30.16 36.7 30.16 46.94 53.59 62.92 71.13 47.06"/><polygon class="cls-3" points="30.16 46.94 30.16 82.53 53.59 62.92 30.16 46.94"/><polygon class="cls-3" points="0 36.7 15.14 36.7 0 26.38 0 36.7"/><polygon class="cls-3" points="71.13 85.89 71.13 47.06 53.59 62.92 71.13 85.89"/><polygon class="cls-2" points="71.13 85.89 53.59 62.92 30.16 82.53 30.16 91.06 71.13 91.06 71.13 85.89"/><polygon class="cls-3" points="30.16 110.94 30.16 118.3 37.61 110.94 30.16 110.94"/><polygon class="cls-4" points="71.13 113 71.13 110.94 54.35 110.94 60.49 139.28 71.13 113"/><polygon class="cls-5" points="54.35 110.94 37.61 110.94 30.16 118.3 30.16 144.21 60.49 139.28 54.35 110.94"/><polygon class="cls-3" points="71.13 151.81 71.13 113 60.49 139.28 71.13 151.81"/><polygon class="cls-3" points="60.49 139.28 30.16 144.21 30.16 182.35 32.89 185.22 60.49 139.28"/><polygon class="cls-4" points="32.89 185.22 71.13 168.02 71.13 151.81 60.49 139.28 32.89 185.22"/><polygon class="cls-5" points="71.13 196.68 71.13 168.02 32.89 185.22 71.13 196.68"/><polygon class="cls-5" points="30.16 182.35 30.16 187.51 32.89 185.22 30.16 182.35"/><polygon class="cls-4" points="71.13 196.68 32.89 185.22 30.16 187.51 30.16 202 71.13 202 71.13 196.68"/></g></g></svg>