<svg xmlns="http://www.w3.org/2000/svg" viewBox="0 0 140.83 205.41"><defs><style>.cls-1{fill:#a57f49;}.cls-2{fill:#bd9243;}.cls-3{fill:#c9a958;}.cls-4{fill:#e2c573;}.cls-5{fill:#f1db7c;}</style></defs><title>Asset 6</title><g id="Layer_2" data-name="Layer 2"><g id="Alphabet"><path class="cls-1" d="M46.44,2.93l2.49,7.19,6.55-9A84.52,84.52,0,0,0,46.44,2.93Z"/><path class="cls-1" d="M89.49,42.11l33.07-19.82q-2-2.4-4.21-4.65Q100.91.2,70.37,0l6,34.68A22.73,22.73,0,0,1,89.49,42.11Z"/><path class="cls-2" d="M68,33.86a40.34,40.34,0,0,1,8.39.84L70.37,0,69.7,0A95.19,95.19,0,0,0,55.48,1.08l-6.55,9,8.76,25.34A31.91,31.91,0,0,1,68,33.86Z"/><path class="cls-2" d="M95.88,64a42.31,42.31,0,0,1-2.24,13l10.44,20,22.66-68.84a60.2,60.2,0,0,0-4.18-5.86L89.49,42.11C93.73,47.12,95.88,54.41,95.88,64Z"/><path class="cls-3" d="M93.64,77q-3.28,10.16-11.4,21.87L104.08,97Z"/><path class="cls-2" d="M82.24,98.84c-.11.15-.19.3-.3.45-.46.66-1,1.33-1.48,2l13.22,38.26,5.08-5.14L104.08,97Z"/><polygon class="cls-2" points="82.24 98.84 82.24 98.84 104.08 96.99 82.24 98.84"/><path class="cls-3" d="M119,110.29c2.21-3.45,4.47-7.19,6.77-11.28a70.51,70.51,0,0,0,10.16-34.35L133.16,42.2a57.87,57.87,0,0,0-6.42-14.05L104.08,97Z"/><path class="cls-4" d="M98.76,134.44l3.23-3.28a126.86,126.86,0,0,0,13.8-16.08c1-1.51,2.12-3.13,3.19-4.79L104.08,97Z"/><path class="cls-2" d="M136,62a68,68,0,0,0-2.83-19.82l2.75,22.46C135.94,63.78,136,62.91,136,62Z"/><path class="cls-1" d="M34.68,29.78,28.15,10.87a63.21,63.21,0,0,0-8.66,6.48A53.89,53.89,0,0,0,7,34.08l9,21.48Z"/><path class="cls-2" d="M41.24,52.73c.23-.66.43-1.34.7-2l-7.26-21L16,55.56Z"/><path class="cls-1" d="M11.16,68H38.69a48,48,0,0,1,2.55-15.27L16,55.56Z"/><path class="cls-2" d="M7,34.08A66.37,66.37,0,0,0,1.78,50L16,55.56Z"/><path class="cls-1" d="M16,55.56,1.78,50A94.28,94.28,0,0,0,0,66.34Z"/><path class="cls-3" d="M0,66.34c0,.55,0,1.1,0,1.66H11.16L16,55.56Z"/><polygon class="cls-5" points="108.8 183.32 115.27 202.01 128.61 197.04 108.8 183.32"/><polygon class="cls-3" points="111.29 172.69 105.13 172.69 108.8 183.32 128.61 197.04 111.29 172.69"/><polygon class="cls-5" points="134.54 172.69 111.29 172.69 128.61 197.04 134.54 172.69"/><polygon class="cls-5" points="140.83 202.97 128.61 197.04 122.22 205.41 140.83 205.41 140.83 202.97"/><polygon class="cls-4" points="115.27 202.01 116.44 205.41 122.22 205.41 128.61 197.04 115.27 202.01"/><polygon class="cls-4" points="140.83 202.97 140.83 172.69 134.54 172.69 128.61 197.04 140.83 202.97"/><path class="cls-2" d="M57.65,125.73c-4.22,4.09-8,7.65-11.28,10.55S38.53,143.19,33,148l9.36,10.71Z"/><path class="cls-3" d="M77.66,154.08,65.27,118.24c-2.72,2.71-5.22,5.17-7.62,7.49l-15.32,33Z"/><path class="cls-3" d="M33,148l-9.33,8.06,18.69,2.65Z"/><path class="cls-4" d="M63.48,205.41H75L85.9,177.93l-1.81-5.23H58q4-3.7,14.37-12.95c2-1.76,3.8-3.4,5.5-4.94l-.25-.73-35.33,4.64Z"/><path class="cls-5" d="M19,205.41l23.35-46.69-18.69-2.65-.31.27Q8,169.57.57,176.11v16.24l8.48,13.06Z"/><polygon class="cls-3" points="18.98 205.41 63.48 205.41 42.33 158.72 18.98 205.41"/><polygon class="cls-4" points="0.57 192.35 0.57 205.41 9.05 205.41 0.57 192.35"/><polygon class="cls-5" points="95.4 205.41 85.9 177.93 75.02 205.41 95.4 205.41"/><polygon class="cls-5" points="75.02 205.41 85.9 177.93 85.9 177.93 75.02 205.41 75.02 205.41"/></g></g></svg>