<svg xmlns="http://www.w3.org/2000/svg" viewBox="0 0 141.4 213.09"><defs><style>.cls-1{fill:none;}.cls-2{fill:#e2c573;}.cls-3{fill:#f1db7c;}.cls-4{fill:#a57f49;}.cls-5{fill:#bd9243;}.cls-6{fill:#c9a958;}</style></defs><title>Asset 4</title><g id="Layer_2" data-name="Layer 2"><g id="Alphabet"><polygon class="cls-1" points="55.42 86.49 55.42 86.49 56.8 100.06 55.42 86.49"/><polygon class="cls-1" points="90.94 175.43 90.94 175.43 91.36 188.24 90.94 175.43"/><path class="cls-1" d="M53.83,175.75c-.56-.31-1.12-.64-1.66-1L52,176.4Z"/><polygon class="cls-1" points="126.31 87.7 91.56 77.66 91.56 77.66 126.31 87.7 126.31 87.7"/><path class="cls-2" d="M0,149.36a86.39,86.39,0,0,0,1.13,11.95l21.79-11.95Z"/><path class="cls-3" d="M30.47,149.36H22.92L1.13,161.31a72.3,72.3,0,0,0,1.6,7.21L30.47,173Z"/><path class="cls-3" d="M9.2,183.5a52.73,52.73,0,0,0,11.85,13.38,66.13,66.13,0,0,0,8.39,5.64Z"/><path class="cls-2" d="M30.47,203.14V173L2.73,168.52a57.22,57.22,0,0,0,6.47,15l20.24,19C29.79,202.72,30.12,203,30.47,203.14Z"/><path class="cls-4" d="M30.47,10.28A62.77,62.77,0,0,0,22.9,15.5,51.34,51.34,0,0,0,8,35.38l22.51,8.88Z"/><path class="cls-5" d="M30.47,44.26,8,35.38A64.86,64.86,0,0,0,3.13,58.89H24.69l5.78-1.3Z"/><polygon class="cls-6" points="24.69 58.89 30.47 58.89 30.47 57.59 24.69 58.89"/><polygon class="cls-6" points="30.47 57.59 24.69 58.89 24.69 58.89 30.47 57.59 30.47 57.59"/><path class="cls-5" d="M102.28,4.85C93.67,1.66,83.74,0,72.41,0a97.3,97.3,0,0,0-22,2.38V41.54q6.82-7.38,20.2-7.4c.33,0,.63,0,1,0l5.13-4.88Z"/><path class="cls-4" d="M123.26,49.45l3-27.68a56.17,56.17,0,0,0-5.93-6.27A56.48,56.48,0,0,0,102.28,4.85L76.64,29.29Z"/><polygon class="cls-4" points="76.64 29.29 102.28 4.85 102.28 4.85 76.64 29.29 76.64 29.29"/><path class="cls-5" d="M137.46,49.45a49.17,49.17,0,0,0-11.18-27.68l-3,27.68Z"/><path class="cls-4" d="M71.51,34.17a42.26,42.26,0,0,1,6.69.62l-1.56-5.5Z"/><polygon class="cls-4" points="76.64 29.29 71.51 34.17 71.51 34.17 76.64 29.29 76.64 29.29"/><path class="cls-5" d="M76.64,29.29h0l1.56,5.5A25.84,25.84,0,0,1,91.61,41Q99,47.8,99,59.46A25.17,25.17,0,0,1,95.6,72.8l27.66-23.35Z"/><path class="cls-6" d="M128.31,85.21a44.48,44.48,0,0,0,7.35-15l-12.4-20.78L95.6,72.8a21.46,21.46,0,0,1-4,4.86l34.75,10C127,86.9,127.65,86.08,128.31,85.21Z"/><path class="cls-4" d="M135.66,70.23a57.66,57.66,0,0,0,2-15.6c0-1.77-.1-3.49-.24-5.18h-14.2Z"/><polygon class="cls-6" points="55.42 86.49 50.36 86.49 50.36 96.31 56.8 100.06 55.42 86.49"/><polygon class="cls-5" points="50.36 96.31 50.36 101.14 56.8 100.06 50.36 96.31"/><polygon class="cls-6" points="50.36 101.14 50.36 119.21 56.8 119.21 56.8 100.06 50.36 101.14"/><path class="cls-6" d="M107.26,102.71v-1.14a37.62,37.62,0,0,0,9.61-5L56.8,100.06l19.07,20.48c6.84,1.18,12.35,3.14,16.45,5.92a23.56,23.56,0,0,1,5.39,5.08l27.15-19.11A53.21,53.21,0,0,0,107.26,102.71Z"/><path class="cls-5" d="M56.8,119.21h1.81a101.62,101.62,0,0,1,17.26,1.33L56.8,100.06Z"/><path class="cls-5" d="M116.87,96.55a50.81,50.81,0,0,0,9.44-8.85l-34.75-10q-9.9,8.82-32.95,8.83H55.43l1.37,13.57Z"/><path class="cls-2" d="M137.71,131.15a43.89,43.89,0,0,0-12.52-18.46l-27,19.52a26,26,0,0,1,4.62,13.38l24.57,15.72Z"/><path class="cls-2" d="M124.86,112.43,97.71,131.54c.18.22.35.44.51.67l27-19.52C125.09,112.6,125,112.52,124.86,112.43Z"/><path class="cls-3" d="M127.41,161.31l-24.57-15.72c.09,1,.15,2.1.15,3.21q0,15.07-7.82,23.18A23.74,23.74,0,0,1,91,175.43l.41,12.81Z"/><path class="cls-6" d="M140.3,166.57a72.5,72.5,0,0,0-2.59-35.42l-10.3,30.16Z"/><path class="cls-3" d="M52.17,174.76c-.61-.4-1.23-.81-1.81-1.26v2.64l1.64.26Z"/><path class="cls-2" d="M52,176.4l-1.64-.26v34.54c1.6.37,3.24.68,4.91,1Z"/><path class="cls-2" d="M91.36,188.24l28.74,11.1c1-.8,2.11-1.58,3.09-2.46a53.39,53.39,0,0,0,11.44-14.26l-7.22-21.31Z"/><path class="cls-3" d="M134.63,182.62a53.74,53.74,0,0,0,5.67-16.05l-12.89-5.26Z"/><path class="cls-2" d="M91.36,188.24,91,175.43q-7.28,4.65-18.69,4.66c-7.2,0-13.33-1.46-18.43-4.34L52,176.4Z"/><path class="cls-3" d="M52,176.4l3.27,35.24A103.34,103.34,0,0,0,70,213l21.41-24.77Z"/><path class="cls-2" d="M70,213c1,0,2.09.08,3.17.08a96.8,96.8,0,0,0,23.76-2.76l-5.52-22.09Z"/><path class="cls-3" d="M96.88,210.33a62.75,62.75,0,0,0,23.22-11l-28.74-11.1Z"/></g></g></svg>