<svg xmlns="http://www.w3.org/2000/svg" viewBox="0 0 164.16 204.84"><defs><style>.cls-1{fill:#a57f49;}.cls-2{fill:#bd9243;}.cls-3{fill:#c9a958;}.cls-4{fill:#e2c573;}.cls-5{fill:#f1db7c;}</style></defs><title>Asset 3</title><g id="Layer_2" data-name="Layer 2"><g id="Alphabet"><polygon class="cls-1" points="72.84 28.58 63.96 41.33 68.64 44.08 72.84 28.58"/><polygon class="cls-2" points="63.96 41.33 60.76 45.92 68.64 44.08 63.96 41.33"/><polygon class="cls-2" points="82.08 36.93 82.08 15.32 72.84 28.58 68.64 44.08 82.08 36.93"/><polygon class="cls-1" points="82.08 45.49 82.08 36.93 68.64 44.08 82.08 45.49"/><polygon class="cls-3" points="81.62 74 68.64 44.08 60.76 45.92 43.66 70.47 71.11 89.97 81.62 74"/><polygon class="cls-2" points="81.62 74 82.08 73.3 82.08 45.49 68.64 44.08 81.62 74"/><polygon class="cls-1" points="71.11 89.97 43.66 70.47 30.98 88.67 65.33 98.77 71.11 89.97"/><polygon class="cls-3" points="73.23 129.73 44.95 129.73 65.33 98.77 30.98 88.67 13.77 113.38 46.4 155.11 73.23 129.73"/><polygon class="cls-2" points="13.77 113.38 0 133.15 0 148.28 46.4 155.11 13.77 113.38"/><polygon class="cls-4" points="62.61 164.44 82.08 164.44 82.08 129.73 73.23 129.73 46.4 155.11 62.61 164.44"/><polygon class="cls-4" points="0 148.28 0 164.44 27.6 164.44 46.4 155.11 0 148.28"/><polygon class="cls-5" points="44.08 164.44 62.61 164.44 46.4 155.11 44.08 164.44"/><polygon class="cls-4" points="37.93 164.44 44.08 164.44 46.4 155.11 37.93 164.44"/><polygon class="cls-5" points="46.4 155.11 27.6 164.44 37.93 164.44 46.4 155.11"/><polygon class="cls-2" points="139.12 0 101.97 0 101.97 26.36 139.12 6.6 139.12 0"/><polygon class="cls-1" points="139.12 6.6 101.97 26.36 101.97 47.57 139.12 51.45 139.12 6.6"/><polygon class="cls-2" points="139.12 51.45 101.97 47.57 101.97 103.99 139.12 78.35 139.12 51.45"/><polygon class="cls-4" points="139.12 78.35 101.97 103.99 101.97 109.38 139.12 119.22 139.12 78.35"/><polygon class="cls-4" points="101.97 133.06 101.97 187.09 115.87 195.09 101.97 133.06"/><polygon class="cls-3" points="139.12 167.84 139.12 164.44 142.03 164.44 164.16 138.51 164.16 129.73 139.12 129.73 139.12 119.22 101.97 109.38 101.97 133.06 115.87 195.09 139.12 167.84"/><polygon class="cls-5" points="101.97 187.09 101.97 199.82 115.87 195.09 101.97 187.09"/><polygon class="cls-4" points="139.12 201.22 139.12 167.84 115.87 195.09 139.12 201.22"/><polygon class="cls-4" points="164.16 164.44 164.16 138.51 142.03 164.44 164.16 164.44"/><polygon class="cls-5" points="117.89 204.84 139.12 204.84 139.12 201.22 115.87 195.09 117.89 204.84"/><polygon class="cls-4" points="115.87 195.09 101.97 199.82 101.97 204.84 117.89 204.84 115.87 195.09"/></g></g></svg>