<svg xmlns="http://www.w3.org/2000/svg" viewBox="0 0 146.8 207.98"><defs><style>.cls-1{fill:none;}.cls-2{fill:#a57f49;}.cls-3{fill:#bd9243;}.cls-4{fill:#c9a958;}.cls-5{fill:#e2c573;}.cls-6{fill:#f1db7c;}</style></defs><title>Asset 1</title><g id="Layer_2" data-name="Layer 2"><g id="Alphabet"><polygon class="cls-1" points="138.21 35 138.21 35 122.36 29.34 138.21 35"/><polygon class="cls-2" points="77.28 0 60.66 0 60.66 2.82 75.95 8.11 77.28 0"/><polygon class="cls-3" points="122.36 29.34 109.06 0 77.28 0 75.95 8.11 122.36 29.34"/><polygon class="cls-2" points="141.45 0 109.06 0 122.36 29.34 141.45 0"/><polygon class="cls-3" points="138.21 35 142.82 35 142.82 0 141.45 0 122.36 29.34 138.21 35"/><polygon class="cls-2" points="122.36 29.34 123.54 35 138.21 35 122.36 29.34"/><polygon class="cls-3" points="60.66 2.82 60.66 28.26 75.95 8.11 60.66 2.82"/><polygon class="cls-2" points="75.95 8.11 60.66 28.26 60.66 35 100.25 35 122.36 29.34 75.95 8.11"/><polygon class="cls-3" points="100.25 35 123.54 35 122.36 29.34 100.25 35"/><polygon class="cls-3" points="40.77 44.17 40.77 0 4.84 0 4.84 0.21 20.69 18.96 40.77 44.17"/><polygon class="cls-2" points="4.84 0.8 4.84 24.84 20.03 19.21 4.84 0.8"/><polygon class="cls-2" points="20.69 18.96 4.84 0.21 4.84 0.8 20.03 19.21 20.69 18.96"/><polygon class="cls-4" points="40.77 44.35 20.03 19.21 4.84 24.84 4.84 45.67 40.77 48.84 40.77 44.35"/><polygon class="cls-4" points="20.03 19.21 40.77 44.35 40.77 44.17 20.69 18.96 20.03 19.21"/><polygon class="cls-3" points="40.77 87.11 4.84 67.03 4.84 88.58 40.77 95.48 40.77 87.11"/><polygon class="cls-4" points="40.77 105.43 40.77 95.48 4.84 88.58 4.84 98.42 20.48 110.37 40.77 105.43"/><polygon class="cls-3" points="4.84 98.42 4.84 122.34 10.81 122.34 20.48 110.37 4.84 98.42"/><polygon class="cls-5" points="20.48 110.37 39.84 122.34 40.77 122.34 40.77 105.43 20.48 110.37"/><polygon class="cls-5" points="10.81 122.34 26.91 122.34 20.48 110.37 10.81 122.34"/><polygon class="cls-4" points="26.91 122.34 39.84 122.34 20.48 110.37 26.91 122.34"/><polygon class="cls-5" points="40.77 48.84 4.84 45.67 4.84 67.03 40.77 87.11 40.77 48.84"/><polygon class="cls-3" points="60.66 98.21 60.66 99.3 63.62 99.87 60.66 98.21"/><polygon class="cls-4" points="60.66 99.3 60.66 100.59 63.62 99.87 60.66 99.3"/><path class="cls-3" d="M143.3,111.73a79,79,0,0,0-10.72-21.82,46.77,46.77,0,0,0-15.7-14.22L85.73,77.61Z"/><path class="cls-4" d="M146.05,124.37a77.5,77.5,0,0,0-2.75-12.64L85.73,77.61l13.48,31.72c.17.17.35.31.51.49,4.65,5,7.39,11.8,8.31,20.25l1.13,2.67Z"/><path class="cls-4" d="M116.88,75.69c-1.57-.9-3.2-1.77-4.93-2.57a67.27,67.27,0,0,0-28.59-6.26,84.85,84.85,0,0,0-12,.8l14.34,10Z"/><path class="cls-3" d="M85.73,77.61l-14.34-10a59.63,59.63,0,0,0-10.73,2.51V91.9l3,8Z"/><path class="cls-5" d="M108,130.07c.07.67.15,1.32.2,2l.93.67Z"/><path class="cls-5" d="M63.62,99.87l2.24,1.61a52.58,52.58,0,0,1,10.67-1q14.1,0,22.68,8.9L85.73,77.61Z"/><path class="cls-5" d="M60.66,100.59v2.3c1.17-.42,2.4-.78,3.67-1.1l-.71-1.92Z"/><path class="cls-3" d="M108.23,132.07c0,.38,0,.77.06,1.15l.87-.48Z"/><path class="cls-3" d="M64.33,101.79c.49-.12,1-.2,1.53-.31l-2.24-1.61Z"/><path class="cls-5" d="M39.26,150.79H4.56l37.28,7.08A30.58,30.58,0,0,1,39.26,150.79Z"/><path class="cls-5" d="M138.26,162.41l7.9-15.28a102.73,102.73,0,0,0,.64-11.7,83.85,83.85,0,0,0-.75-11.06l-36.89,8.37Z"/><path class="cls-6" d="M79,174.83c-1,.08-2.08.14-3.17.14A56,56,0,0,1,63,173.58L77.88,187Z"/><path class="cls-6" d="M138.26,162.41l-29.1-29.67-.84,1.46c0,.78.08,1.55.08,2.36q0,17.37-8.54,27.89a27.24,27.24,0,0,1-14.31,9.27L77.88,187Z"/><path class="cls-4" d="M108.29,133.22c0,.32,0,.65,0,1l.84-1.46Z"/><path class="cls-4" d="M85.55,173.72A34.55,34.55,0,0,1,79,174.83L77.88,187Z"/><path class="cls-6" d="M41.84,157.87,4.56,150.79H0a68.64,68.64,0,0,0,4.57,17.26l38.22-8.47C42.46,159,42.13,158.46,41.84,157.87Z"/><path class="cls-5" d="M63,173.58a33.68,33.68,0,0,1-11.88-5.15,29,29,0,0,1-8.27-8.84L4.59,168.11A59.88,59.88,0,0,0,11.21,180L77.88,187Z"/><path class="cls-5" d="M42.79,159.58,4.57,168.05a.14.14,0,0,1,0,.06l38.21-8.52Z"/><path class="cls-4" d="M143.56,160.4a82.69,82.69,0,0,0,2.6-13.27l-7.9,15.28Z"/><path class="cls-6" d="M141.18,167.43a69.09,69.09,0,0,0,2.38-7l-5.3,2Z"/><path class="cls-5" d="M138.26,162.41,77.88,187l47.24,3.87c.94-.87,1.87-1.76,2.77-2.7a64.23,64.23,0,0,0,13.29-20.77Z"/><path class="cls-6" d="M11.21,180a61.69,61.69,0,0,0,31.66,23.16l35-16.11Z"/><path class="cls-5" d="M42.87,203.14c9.41,3.18,20.22,4.84,32.52,4.84A95.23,95.23,0,0,0,93,206.41L77.88,187Z"/><path class="cls-6" d="M93,206.41q19.16-3.58,32.13-15.51L77.88,187Z"/><polygon class="cls-5" points="60.66 91.9 60.66 98.21 63.62 99.87 60.66 91.9"/></g></g></svg>