<svg xmlns="http://www.w3.org/2000/svg" xmlns:xlink="http://www.w3.org/1999/xlink" width="95" height="95" viewBox="0 0 95 95"><defs><style>.a{fill:#fff;}.b{clip-path:url(#a);}</style><clipPath id="a"><rect class="a" width="95" height="95"/></clipPath></defs><g transform="translate(-491 -192)"><g transform="translate(491 192)"><g class="b" transform="translate(0)"><path class="a" d="M585.231,262.524a8.256,8.256,0,0,0-8.177-5.911,40,40,0,0,0,1.233-9.883v-6.959a1.845,1.845,0,0,0-.364-1.1L567.185,224.2a1.848,1.848,0,0,0-1.485-.746h-.818V211.509l6.574-6.574a1.849,1.849,0,0,0,0-2.615l-5.229-5.23a1.848,1.848,0,0,0-2.616,0l-8.2,8.2a5.516,5.516,0,0,0-1.624,3.922v14.245H525.1l-2.583-9.638,4.893-1.312.407.524a1.848,1.848,0,0,0,3.268-1.509l14.965-4.01,1.643.624A1.849,1.849,0,1,0,549,204.678L515.9,192.12v0a1.835,1.835,0,0,0-2.085.561l0,0L491.433,220.1a1.849,1.849,0,1,0,2.865,2.338l1.11-1.362,14.965-4.01a1.847,1.847,0,0,0,1.5,1.252,1.952,1.952,0,0,0,.255.017,1.85,1.85,0,0,0,1.83-1.6l.091-.658,4.892-1.312,2.326,8.681H511a1.848,1.848,0,0,0-1.484.746L498.776,238.67a1.852,1.852,0,0,0-.364,1.1v6.959a39.955,39.955,0,0,0,54.71,37.113,9.2,9.2,0,0,0,1.251,1.1,8.885,8.885,0,0,0,5.168,1.713,8.034,8.034,0,0,0,6.478-3.336c.047-.062.093-.124.141-.188.046.063.092.126.14.188a8.033,8.033,0,0,0,6.479,3.336,8.88,8.88,0,0,0,5.167-1.714A8.206,8.206,0,0,0,580,273.366c-.043-.065-.09-.128-.135-.192.074-.025.148-.049.221-.075a8.206,8.206,0,0,0,5.143-10.575ZM528.82,208.3l-8.072-10.386,19.385,7.354Zm-16.3-8.181-1.8,13.03-11.313,3.032Zm3.963-1.671,8.463,10.891L514.6,212.111Zm65.233,65.218a4.511,4.511,0,0,1-2.863,5.948q-.149.052-.3.1a11.44,11.44,0,0,1-9.232-.977,15.2,15.2,0,0,0,4.77-7.494q.452-.223.925-.4l.063-.025q.258-.1.521-.183c.1-.033.2-.065.3-.094a4.511,4.511,0,0,1,5.813,3.129Zm-26.364,6.443a11.7,11.7,0,0,1-1.582-.392l-.3-.1a4.777,4.777,0,0,1,2.949-9.078c.1.031.2.062.3.094a11.446,11.446,0,0,1,6.9,6.218,15.19,15.19,0,0,0-8.264,3.26Zm6.033-12.867c0-.106,0-.212,0-.316a4.777,4.777,0,0,1,9.544,0c0,.105,0,.211,0,.316a11.446,11.446,0,0,1-3.783,8.479,15.2,15.2,0,0,0-5.651-6.852,11.447,11.447,0,0,1-.119-1.627Zm12.44-17.892c-6.265,2.439-15.116,2.307-21.1-.394l-1.874-11.8H564.77Zm-26.721-12.2,1.9,11.966a29.866,29.866,0,0,1-21.188.05l2.98-12.016Zm10.384-17.943a1.833,1.833,0,0,1,.542-1.307l6.891-6.892,2.615,2.615-5.809,5.808a1.85,1.85,0,0,0-.541,1.308v12.713h-3.7Zm-45.558,17.943h15.055l-2.916,11.763c-5.988,2.74-14.9,2.884-21.193.434Zm26.421,55.815a36.281,36.281,0,0,1-36.24-36.24v-3.722a32.57,32.57,0,0,0,10.847,1.757,31,31,0,0,0,12.7-2.506,33.42,33.42,0,0,0,25.393,0,31,31,0,0,0,12.7,2.506,32.564,32.564,0,0,0,10.847-1.757v3.722a36.351,36.351,0,0,1-.646,6.843,8.341,8.341,0,0,0-7.784-4.9,8.207,8.207,0,0,0-8.469,8.159c0,.077,0,.155,0,.233l-.223-.069A8.475,8.475,0,0,0,552.23,273.1l.223.076c-.045.063-.091.126-.136.191a8.029,8.029,0,0,0-1.143,7.271,36.022,36.022,0,0,1-12.824,2.333Zm24.738-1.9a4.509,4.509,0,0,1-6.541.885,5.417,5.417,0,0,1-1.333-1.38c-.01-.014-.018-.029-.028-.042a4.365,4.365,0,0,1,.18-5.072c.06-.086.12-.173.182-.259a11.444,11.444,0,0,1,8.045-4.635,15.19,15.19,0,0,0,.545,8.864,11.565,11.565,0,0,1-.861,1.386c-.063.086-.125.169-.19.253Zm12.685.885a4.509,4.509,0,0,1-6.541-.884q-.1-.126-.19-.254a11.442,11.442,0,0,1-1.923-9.082,15.193,15.193,0,0,0,7.93,2.236q.335,0,.67-.016a11.636,11.636,0,0,1,1.05,1.247c.063.086.123.172.183.259a4.51,4.51,0,0,1-1.181,6.495Zm0,0" transform="translate(-491.012 -192.001)"/></g></g><path class="a" d="M613.571,498.182a27.162,27.162,0,0,1-19.552-8.219,1.849,1.849,0,0,0-2.641,2.588,30.827,30.827,0,0,0,22.193,9.33,1.849,1.849,0,0,0,0-3.7Zm0,0" transform="translate(-75.234 -224.088)"/><path class="a" d="M572.74,462.188a1.848,1.848,0,1,0,1.308.541,1.861,1.861,0,0,0-1.308-.541Zm0,0" transform="translate(-60.196 -203.579)"/></g></svg>