<svg xmlns="http://www.w3.org/2000/svg" xmlns:xlink="http://www.w3.org/1999/xlink" width="59" height="104" viewBox="0 0 59 104"><defs><style>.a{fill:#f5f5f5;}.b{clip-path:url(#a);}</style><clipPath id="a"><rect class="a" width="59" height="104"/></clipPath></defs><g transform="translate(-546 -144)"><g transform="translate(546 144)"><g class="b" transform="translate(0)"><path class="a" d="M549.491,145.746v6.768l-3.44,13.757a3.236,3.236,0,0,0-.052.423v69.828a3.337,3.337,0,0,0,.089.551l3.491,10.474a1.747,1.747,0,0,0,1.657,1.194h48.88a1.746,1.746,0,0,0,1.657-1.194l3.491-10.474a3.337,3.337,0,0,0,.089-.551V166.694a3.236,3.236,0,0,0-.052-.423l-3.44-13.757v-6.768A1.746,1.746,0,0,0,600.117,144h-48.88a1.746,1.746,0,0,0-1.746,1.746Zm51.881,19.2H549.981l2.619-10.474h46.154Zm-51.881,47.309a101.947,101.947,0,0,0,52.371-11.207v3.336c-3.045,2.983-21.081,19.311-52.371,19.9Zm52.371-15.172a99.975,99.975,0,0,1-52.371,11.659v-40.3h52.371Zm-52.371,30.679c28.106-.493,45.7-12.871,52.371-18.623v25.636H549.491Zm49.366,17.487H552.5l-2.329-6.983h51.019Zm-45.875-97.759h45.388v3.491H552.983Zm0,0" transform="translate(-546 -144)"/></g></g><path class="a" d="M579.746,333.966h5.237v-3.491h-3.491v-6.983h3.491V320h-5.237A1.746,1.746,0,0,0,578,321.746V332.22a1.746,1.746,0,0,0,1.746,1.746Zm0,0" transform="translate(-25.017 -137.594)"/><path class="a" d="M627.746,333.966h6.983a1.746,1.746,0,0,0,1.746-1.746V321.746A1.746,1.746,0,0,0,634.729,320h-6.983A1.746,1.746,0,0,0,626,321.746V332.22a1.746,1.746,0,0,0,1.746,1.746Zm1.746-10.474h3.491v6.983h-3.491Zm0,0" transform="translate(-62.543 -137.594)"/><path class="a" d="M690,320v12.22a1.746,1.746,0,0,0,1.746,1.746h5.237v-3.491h-3.491V320Zm0,0" transform="translate(-112.577 -137.594)"/><path class="a" d="M746.729,320h-6.983A1.746,1.746,0,0,0,738,321.746v12.22h3.491v-3.491h3.491v3.491h3.491v-12.22A1.746,1.746,0,0,0,746.729,320Zm-5.237,6.983v-3.491h3.491v3.491Zm0,0" transform="translate(-150.103 -137.594)"/><rect class="a" width="4" height="4" transform="translate(575 172)"/><path class="a" d="M726.22,278.983h3.491v-5.237A1.746,1.746,0,0,0,727.966,272H714v3.491h12.22Zm0,0" transform="translate(-131.34 -100.069)"/></g></svg>