<svg xmlns="http://www.w3.org/2000/svg" xmlns:xlink="http://www.w3.org/1999/xlink" width="92" height="78" viewBox="0 0 92 78"><defs><style>.a{fill:#fff;}.b{clip-path:url(#a);}</style><clipPath id="a"><rect class="a" width="92" height="78"/></clipPath></defs><g transform="translate(-386 -133)"><g transform="translate(386 133)"><g class="b" transform="translate(0 0)"><path class="a" d="M468.192,137.988a11.541,11.541,0,0,0-17,8.189l-.693,4.172-2.267,10.2a5.1,5.1,0,0,1-4.306,3.984l.772-1.845a43.012,43.012,0,0,0,3.034-21.246,9.187,9.187,0,0,0-12.751-7.431l-1.047.452a9.229,9.229,0,0,0-5.39,10.247l2.544,12.718a8.227,8.227,0,0,0-2.96-.561h-6.756a8.028,8.028,0,0,0-1.348.128l.327-3.282a8.377,8.377,0,0,0-8.333-9.208h-3.449a8.373,8.373,0,0,0-8.374,8.372q0,.419.041.836l1.724,17.244a8.347,8.347,0,0,0,1.38,3.792,4.33,4.33,0,0,1-2.238.659h-4.912a7.536,7.536,0,0,0-5.909,2.839l-2.626,3.277a7.557,7.557,0,0,0-1.511,6.211l.181.9a7.607,7.607,0,0,0,6.181,5.978l.928.154a4.478,4.478,0,0,1,3.677,3.677,7.543,7.543,0,0,0,7.467,6.322h3.747A7.524,7.524,0,0,0,412.8,203.3l.907-.666,7,7a5.915,5.915,0,0,0,2.749,1.554,11.428,11.428,0,0,0,2.781.345,11.566,11.566,0,0,0,7.516-2.781l3.314-2.843a5.93,5.93,0,0,0,2.061-4.263c0-.154-.025-.319-.031-.478a7.017,7.017,0,0,0,5.055-2.5l.374-.449a7.085,7.085,0,0,0-1.639-10.507l-2.052-1.308,8.609-1.613a54.487,54.487,0,0,0,17.46-6.5,23.007,23.007,0,0,0,11.378-19.8V155.14a19.622,19.622,0,0,0-10.092-17.151Zm-13.944,8.7a8.456,8.456,0,0,1,12.447-6,16.528,16.528,0,0,1,4.391,3.6l-2.645,1.653a23.26,23.26,0,0,1-14.633,3.407Zm-12.4,14.812-1.289,3.09h-.193a5.183,5.183,0,0,1-4.427-2.507l-.728-1.213c-.12-.2-.262-.388-.4-.577l-1.134-5.666.755-.376a10.2,10.2,0,0,1,7.826-.558l.977-2.936a13.239,13.239,0,0,0-10.186.723l-.655-3.27a18.8,18.8,0,0,1,12.5-2.285,39.907,39.907,0,0,1-3.045,15.574Zm-6.7-24.2,1.054-.451a6.1,6.1,0,0,1,8.464,4.93c.037.332.049.665.079,1a21.843,21.843,0,0,0-12.979,2.264l-.187-.94a6.123,6.123,0,0,1,3.569-6.8ZM410.3,175.407a5.268,5.268,0,0,1-5.253-4.759l-.79-7.9a12.054,12.054,0,0,0,12.1,0l-.8,7.9a5.268,5.268,0,0,1-5.253,4.759Zm-1.725-27.813h3.449a5.282,5.282,0,0,1,5.281,5.286c0,.175-.009.35-.026.524l-.553,5.528-1.758,1.057a9.077,9.077,0,0,1-9.342,0l-1.758-1.057-.554-5.528c-.015-.154,0-.309,0-.471l2,1.2a12.138,12.138,0,0,0,10.109,1.109l-.977-2.936a9.073,9.073,0,0,1-7.542-.828l-2.656-1.595a5.716,5.716,0,0,1,.408-.554,5.218,5.218,0,0,1,3.924-1.732Zm-8.405,50.343a7.573,7.573,0,0,0-6.218-6.218l-.926-.155a4.5,4.5,0,0,1-3.653-3.537l-.181-.9a4.465,4.465,0,0,1,.895-3.672l2.627-3.276a4.453,4.453,0,0,1,3.485-1.681h.879a35.126,35.126,0,0,1,5.5,18.868v3.82a4.446,4.446,0,0,1-2.4-3.248Zm10.806,2.871a4.51,4.51,0,0,1-2.646.867h-2.665v-4.309A38.207,38.207,0,0,0,400.7,178.5h.409a7.472,7.472,0,0,0,4.442-1.5,8.293,8.293,0,0,0,4.16,1.443l2.134,1.6a7.766,7.766,0,0,1,3.09,6.182h3.09a10.86,10.86,0,0,0-4.188-8.536,8.328,8.328,0,0,0,4.79-6.732l1.068-10.675a5.087,5.087,0,0,1,1.684-.324h.583l2.15,2.458a26.226,26.226,0,0,1,6.385,19.174,7.052,7.052,0,0,0-3.838,12.477,6.336,6.336,0,0,1-6.359-1.575l-1.181-1.181a5.915,5.915,0,1,0-8.365,8.365l.748.748Zm24.093,2.764-3.315,2.842A8.474,8.474,0,0,1,424.2,208.2a2.837,2.837,0,0,1-1.315-.745l-1.391-1.39a9.568,9.568,0,0,1,8.071-4.387h2.361v-3.09h-2.361a12.638,12.638,0,0,0-10.286,5.254l-3.708-3.708,2-2-2.185-2.185-2,2-.453-.453a2.826,2.826,0,0,1,4-4l1.181,1.181a9.392,9.392,0,0,0,9.672,2.282,6.334,6.334,0,0,1,6.509,1.545l.927.928a2.825,2.825,0,0,1,0,4q-.076.077-.157.146Zm7.974-10.492a3.992,3.992,0,0,1-.88,3.172l-.373.45a3.957,3.957,0,0,1-3.709,1.363,5.951,5.951,0,0,0-.667-.822l-.928-.927a9.4,9.4,0,0,0-5.2-2.639l-2.472-1.8a3.986,3.986,0,0,1,4.093-6.809l-2.259,3.388,2.571,1.715,2.318-3.477,2.094,1.333-2.347,3.518,2.571,1.715,2.382-3.576,1,.639a4,4,0,0,1,1.8,2.751Zm-8.078-10.412a7.211,7.211,0,0,0-1.406-.671,29.32,29.32,0,0,0-7.124-21.619l-.376-.423h2.07a5.183,5.183,0,0,1,4.427,2.506l.727,1.213a8.293,8.293,0,0,0,7.082,4.006h.078a53.029,53.029,0,0,1,7.934,14.177l-11.346,2.126Zm31.076-7.475-8.707-4.268-1.36,2.781,6.787,3.325a51.3,51.3,0,0,1-11.334,4.182,56.157,56.157,0,0,0-7.181-13.615,7.921,7.921,0,0,0,5.3-2.921l4.095.513a26.393,26.393,0,0,0,15.067-2.578l6.462-3.231a19.9,19.9,0,0,1-9.129,15.811Zm9.155-19.284-7.88,3.938a23.24,23.24,0,0,1-13.288,2.271l-2.919-.365c.053-.181.117-.356.154-.542l1.958-8.828a26.64,26.64,0,0,0,2.886.178,26.36,26.36,0,0,0,13.972-4.017l2.845-1.777a16.512,16.512,0,0,1,2.272,8.372Zm0,0" transform="translate(-385.999 -133.223)"/></g></g><rect class="a" width="3.09" height="3.09" transform="translate(407.207 167.458)"/><rect class="a" width="3.091" height="3.09" transform="translate(390.21 184.455)"/></g></svg>