<svg xmlns="http://www.w3.org/2000/svg" width="96" height="81" viewBox="0 0 96 81"><defs><style>.a{fill:#fff;}</style></defs><g transform="translate(-491 -222)"><path class="a" d="M564.875,277.2a22.125,22.125,0,0,0,1.865-44.171v-9.149A1.875,1.875,0,0,0,564.865,222h-67.5a1.875,1.875,0,0,0-1.875,1.875v28.773a59.778,59.778,0,0,0,1.988,15.3,24.665,24.665,0,0,0-4.6-.436A1.875,1.875,0,0,0,491,269.386a24.617,24.617,0,0,0,11.57,20.864h-9.7A1.875,1.875,0,0,0,491,292.125v.27A10.616,10.616,0,0,0,501.6,303h20.747a1.875,1.875,0,0,0,0-3.75H501.6A6.866,6.866,0,0,1,494.94,294h71.7a6.867,6.867,0,0,1-6.665,5.25H539.226a1.875,1.875,0,0,0,0,3.75h20.746a10.616,10.616,0,0,0,10.6-10.6v-.27a1.875,1.875,0,0,0-1.875-1.875H553.444a59.722,59.722,0,0,0,8.037-13.055ZM583.25,255.07a18.4,18.4,0,0,1-18.375,18.375h-1.858q.822-2.218,1.466-4.5h.392a13.873,13.873,0,0,0,1.865-27.621v-4.535a18.4,18.4,0,0,1,16.51,18.281Zm-16.51-9.95a10.124,10.124,0,0,1-1.321,20.061,60.078,60.078,0,0,0,1.321-12.548Zm-3.75-14.108H548.611V225.75H562.99Zm-18.129-5.262v5.262H499.24V225.75Zm-50.018,45.6a20.853,20.853,0,0,1,7.55,2.2,24.758,24.758,0,0,0,.82,5.249A24.485,24.485,0,0,0,508.9,289.14a20.917,20.917,0,0,1-14.057-17.787ZM514.9,289.439a20.708,20.708,0,0,1-8.063-11.607,21.006,21.006,0,0,1-.718-5.3c0-.068,0-.137,0-.2a20.666,20.666,0,0,1,1.9-8.578,20.9,20.9,0,0,1,6.884,25.69Zm3.738.811a24.651,24.651,0,0,0-10.4-30.812,1.875,1.875,0,0,0-2.562.686,24.563,24.563,0,0,0-3.133,9.36q-.4-.173-.815-.331a56,56,0,0,1-2.484-16.506V234.762h45.621v10.184h-3.106a4.282,4.282,0,0,0-4.277,4.277v10.2a4.282,4.282,0,0,0,4.277,4.277h10.2a4.282,4.282,0,0,0,4.277-4.277v-10.2a4.283,4.283,0,0,0-4.277-4.277h-3.34V234.762H562.99v17.871a56.279,56.279,0,0,1-1.72,13.818,1.861,1.861,0,0,0-.082.323,55.8,55.8,0,0,1-2.589,7.642,1.853,1.853,0,0,0-.15.354,56.1,56.1,0,0,1-9.935,15.48ZM551.951,248.7a.528.528,0,0,1,.527.527v10.2a.528.528,0,0,1-.527.527h-10.2a.527.527,0,0,1-.527-.527v-10.2a.528.528,0,0,1,.527-.527Zm0,0" transform="translate(0 0)"/><path class="a" d="M644.531,531a1.875,1.875,0,1,0,1.326.55,1.893,1.893,0,0,0-1.326-.55Zm0,0" transform="translate(-113.742 -231.75)"/></g></svg>