<svg xmlns="http://www.w3.org/2000/svg" width="71" height="36" viewBox="0 0 71 71"><defs><style>.a{fill:#fff;}</style></defs><g transform="translate(0)"><path class="a" d="M70.669,9.363a1.387,1.387,0,0,0-1.056-.488H57.135a18.2,18.2,0,0,0-4.8-8.469,1.387,1.387,0,0,0-1.961,0L41.9,8.877l-.04,0H30.789a7.651,7.651,0,0,0-14.984,0H1.386A1.387,1.387,0,0,0,.018,10.484L8.9,65.178A6.907,6.907,0,0,0,15.747,71H55.253A6.907,6.907,0,0,0,62.1,65.178l8.885-54.694A1.388,1.388,0,0,0,70.669,9.363Zm-2.687,2.285-.608,3.739h-9.8a18.466,18.466,0,0,0,.033-3.739ZM51.309,3.391A15.543,15.543,0,0,1,29.415,25.284l2.362-2.362a12.213,12.213,0,0,0,19.339-6.163c.01-.028.02-.057.028-.086s.012-.056.018-.084A12.24,12.24,0,0,0,48.946,5.753ZM4.075,18.161H32.616L26.43,24.347a1.387,1.387,0,0,0,0,1.961,18.357,18.357,0,0,0,21.885,3.04L45.368,32.3h0a4.562,4.562,0,0,0,0,6.444l3.708,3.708H45.261A5.3,5.3,0,0,0,39.97,47.74v8.966a5.258,5.258,0,0,0,.711,2.645H10.766Zm42.9-10.433a9.377,9.377,0,0,1,1.858,5.629,9.6,9.6,0,0,1-.083,1.238l-6.816-1.826ZM43.287,21.963l-1.72-6.42,6.42,1.72a9.49,9.49,0,0,1-4.7,4.7Zm-4.494-6.056,1.826,6.816a9.575,9.575,0,0,1-1.238.083,9.376,9.376,0,0,1-5.629-1.858l3.094-3.094a1.4,1.4,0,0,0,.209-.209ZM54.227,45.222a2.521,2.521,0,0,1,2.518,2.518v8.966a2.521,2.521,0,0,1-2.518,2.518H45.261a2.521,2.521,0,0,1-2.518-2.518V47.74a2.521,2.521,0,0,1,2.518-2.518h8.966Zm-.49-2.773a1.771,1.771,0,0,1-1.261-.523l-5.147-5.147a1.785,1.785,0,0,1,0-2.522h0l5.147-5.147a1.784,1.784,0,0,1,2.522,0l5.147,5.147a1.785,1.785,0,0,1,0,2.522L55,41.926A1.772,1.772,0,0,1,53.737,42.449ZM35.39,15.388H29.11a7.623,7.623,0,0,0,1.737-3.739h8.282ZM23.3,5.547a4.876,4.876,0,1,1-4.876,4.876A4.882,4.882,0,0,1,23.3,5.547Zm-7.551,6.1a7.623,7.623,0,0,0,1.737,3.739H3.624l-.608-3.739ZM55.253,68.226H15.747a4.144,4.144,0,0,1-4.106-3.493l-.424-2.609H59.783l-.424,2.609A4.144,4.144,0,0,1,55.253,68.226Zm4.981-8.875H58.807a5.257,5.257,0,0,0,.711-2.645V47.74a5.287,5.287,0,0,0-2.155-4.258l4.742-4.742a4.562,4.562,0,0,0,0-6.445l-5.147-5.147a4.527,4.527,0,0,0-3.222-1.335,4.6,4.6,0,0,0-1.042.12,18.194,18.194,0,0,0,4.357-7.773h9.873Z"/><path class="a" d="M91.722,177.087l-4.309-4.309h0L72.091,157.456h0l-4.309-4.309a1.387,1.387,0,0,0-1.961,0,18.152,18.152,0,0,0-5.2,10.482,18.451,18.451,0,0,0,2.086,11.277,1.387,1.387,0,1,0,2.431-1.335,15.627,15.627,0,0,1,1.706-17.439l2.361,2.361a12.213,12.213,0,0,0,6.161,19.338c.029.01.058.02.088.028s.045.008.067.013a12.228,12.228,0,0,0,10.853-2.21l2.361,2.361a15.613,15.613,0,0,1-17.51,1.667,1.387,1.387,0,1,0-1.347,2.424,18.428,18.428,0,0,0,8.919,2.3,18.255,18.255,0,0,0,12.924-5.362A1.387,1.387,0,0,0,91.722,177.087Zm-15.5-11.578-6.816,1.826a9.575,9.575,0,0,1-.083-1.238,9.377,9.377,0,0,1,1.858-5.629ZM70.166,170l6.42-1.72-1.72,6.42a9.49,9.49,0,0,1-4.7-4.7Zm8.605,5.542a9.6,9.6,0,0,1-1.238-.082l1.826-6.816,5.041,5.041A9.377,9.377,0,0,1,78.771,175.545Z" transform="translate(-52.075 -131.559)"/><path class="a" d="M98.6,327.791a1.387,1.387,0,0,0,0-1.961l-.035-.035a1.387,1.387,0,1,0-1.966,1.956l.04.04a1.387,1.387,0,0,0,1.961,0Z" transform="translate(-82.856 -280.265)"/><path class="a" d="M105.777,393.37a1.385,1.385,0,1,0,.98.4A1.4,1.4,0,0,0,105.777,393.37Z" transform="translate(-89.914 -338.821)"/><path class="a" d="M270.227,243.453a1.385,1.385,0,1,0-.98-.4A1.4,1.4,0,0,0,270.227,243.453Z" transform="translate(-231.56 -207.305)"/><path class="a" d="M439.858,145.986a1.386,1.386,0,1,0,.406.98A1.4,1.4,0,0,0,439.858,145.986Z" transform="translate(-376.824 -125.392)"/><path class="a" d="M155.057,152.443a1.387,1.387,0,1,0-.98-.406A1.4,1.4,0,0,0,155.057,152.443Z" transform="translate(-132.361 -128.915)"/></g></svg>