<svg xmlns="http://www.w3.org/2000/svg" width="51.312" height="117.333" viewBox="0 0 51.312 117.333"><defs><style>.a{fill:#fff;}</style></defs><g transform="translate(-144.047)"><path class="a" d="M195.337,77.839A8.127,8.127,0,0,0,192.2,71.41a8.1,8.1,0,0,0-.356-13.088,9.008,9.008,0,0,0,3.4-7.118V34.086L178.772,12.629h3.621V0H156.906V12.629h3.85L144.047,34.086V51.2a9.107,9.107,0,0,0,3.516,7.118A8.148,8.148,0,0,0,147.3,71.41,8.182,8.182,0,0,0,147.56,84.5a9.1,9.1,0,0,0-3.513,7.118v14.7a9.278,9.278,0,0,0,9.185,9.185h9.185v-.151a9.122,9.122,0,0,0,5.511,1.988H171.6a9.121,9.121,0,0,0,5.511-1.988v.151H186.3a9.082,9.082,0,0,0,8.955-9.185v-14.7a9.005,9.005,0,0,0-3.4-7.118A8.171,8.171,0,0,0,195.337,77.839ZM160.35,9.185V3.444h18.6v5.74Zm4.752,3.444h9.325l15.72,20.436H149.381Zm22.113,60.618a4.707,4.707,0,0,1,0,9.414h-4.592v3.444H186.3a5.437,5.437,0,0,1,5.511,5.511v14.7a5.634,5.634,0,0,1-5.511,5.74h-6.458a10.386,10.386,0,0,0,.832-3.9h-3.444a5.731,5.731,0,0,1-5.626,5.74h-3.674a5.731,5.731,0,0,1-5.626-5.74h-3.444a10.386,10.386,0,0,0,.832,3.9h-6.458a5.83,5.83,0,0,1-5.74-5.74v-14.7a5.634,5.634,0,0,1,5.74-5.511H171.6V82.661H152.313a4.707,4.707,0,0,1,0-9.414H171.6V69.8H152.313a4.707,4.707,0,1,1,0-9.414H171.6V56.944H153.232a5.83,5.83,0,0,1-5.74-5.74v-14.7h44.316V51.2a5.634,5.634,0,0,1-5.511,5.74h-3.674v3.444h4.592a4.707,4.707,0,1,1,0,9.414h-4.592v3.444Z"/><rect class="a" width="3.674" height="3.444" transform="translate(156.906 25.717)"/><rect class="a" width="3.674" height="3.444" transform="translate(160.58 22.043)"/><rect class="a" width="3.674" height="3.444" transform="translate(175.276 69.803)"/><rect class="a" width="3.674" height="3.444" transform="translate(175.276 56.945)"/><rect class="a" width="3.674" height="3.444" transform="translate(175.276 82.661)"/></g></svg>